# xmcd
# 
# Track frame offsets:
#	150
#	22302
#	48273
#	67766
#	92859
#	110303
#	134664
#	156963
#	184128
# 
# Disc length: 2834 seconds
# 
# Revision: 0
# Processed by: cddbd v1.5PL3 Copyright (c) Steve Scherf et al.
# Submitted via: CD Titler Ver.2.00beta7
# 
DISCID=7a0b1009
DTITLE=Various Artist - 文イヒ放送 智一・美樹のラジオ・ビッグバソ BGP First
DYEAR=2002
DGENRE=Seiyu
TTITLE0=吉田麻子 - UNKNOWN
TTITLE1=伊藤靖子 - Courage
TTITLE2=石井順子 - 没落ロマネスク
TTITLE3=時田圭輔 - いつか...。
TTITLE4=波多野和俊 - 烈火-REKKA-
TTITLE5=長谷部瞳 - Thank you!!
TTITLE6=今井麻美 - return to...〜約束の丘〜
TTITLE7=ペニーレイン - LIFE.R(LIVE Ver.)
TTITLE8=つぶつぶマンゴー☆ - PAPAIYA!(LIVE Ver.)
EXTD=
EXTT0=
EXTT1=
EXTT2=
EXTT3=
EXTT4=
EXTT5=
EXTT6=
EXTT7=
EXTT8=
PLAYORDER=
